<svg width="1400" height="700" viewBox="0 0 1400 700" xmlns="http://www.w3.org/2000/svg">
  <defs>
    <linearGradient id="bg" x1="0" y1="0" x2="1" y2="1">
      <stop offset="0%" stop-color="#071223"/>
      <stop offset="100%" stop-color="#0b1f3e"/>
    </linearGradient>
  </defs>
  <rect width="1400" height="700" fill="url(#bg)"/>
  <text x="50" y="65" fill="#e8f4ff" font-size="44" font-family="Inter, Arial" font-weight="700">VisaFlow OS Architecture</text>

  <rect x="60" y="120" width="240" height="90" rx="12" fill="#10345d" stroke="#3a7cb5"/>
  <text x="88" y="172" fill="#d8ebff" font-size="28" font-family="Inter, Arial">1) Intake UI</text>

  <rect x="360" y="120" width="280" height="90" rx="12" fill="#10345d" stroke="#3a7cb5"/>
  <text x="390" y="172" fill="#d8ebff" font-size="28" font-family="Inter, Arial">2) Flow Router</text>

  <rect x="700" y="120" width="300" height="90" rx="12" fill="#10345d" stroke="#3a7cb5"/>
  <text x="732" y="172" fill="#d8ebff" font-size="28" font-family="Inter, Arial">3) Case Graph</text>

  <rect x="1060" y="120" width="280" height="90" rx="12" fill="#10345d" stroke="#3a7cb5"/>
  <text x="1090" y="172" fill="#d8ebff" font-size="28" font-family="Inter, Arial">4) Process UI</text>

  <rect x="120" y="320" width="380" height="260" rx="14" fill="#0f2d52" stroke="#2f6da2"/>
  <text x="155" y="370" fill="#e8f4ff" font-size="30" font-family="Inter, Arial" font-weight="700">Flow Packs</text>
  <text x="155" y="410" fill="#b9d8f4" font-size="24" font-family="Inter, Arial">- F-1 Basics</text>
  <text x="155" y="444" fill="#b9d8f4" font-size="24" font-family="Inter, Arial">- CPT Prep</text>
  <text x="155" y="478" fill="#b9d8f4" font-size="24" font-family="Inter, Arial">- Initial OPT</text>
  <text x="155" y="512" fill="#b9d8f4" font-size="24" font-family="Inter, Arial">- STEM OPT</text>
  <text x="155" y="546" fill="#b9d8f4" font-size="24" font-family="Inter, Arial">- Cap Gap / H-1B</text>

  <rect x="560" y="320" width="360" height="260" rx="14" fill="#0f2d52" stroke="#2f6da2"/>
  <text x="594" y="370" fill="#e8f4ff" font-size="30" font-family="Inter, Arial" font-weight="700">Scoring + Adaptation</text>
  <text x="594" y="410" fill="#b9d8f4" font-size="24" font-family="Inter, Arial">- Missing entities</text>
  <text x="594" y="444" fill="#b9d8f4" font-size="24" font-family="Inter, Arial">- Step dependencies</text>
  <text x="594" y="478" fill="#b9d8f4" font-size="24" font-family="Inter, Arial">- Mode switching</text>
  <text x="594" y="512" fill="#b9d8f4" font-size="24" font-family="Inter, Arial">- Explain bundling</text>

  <rect x="980" y="320" width="320" height="260" rx="14" fill="#0f2d52" stroke="#2f6da2"/>
  <text x="1012" y="370" fill="#e8f4ff" font-size="30" font-family="Inter, Arial" font-weight="700">Knowledge Layer</text>
  <text x="1012" y="410" fill="#b9d8f4" font-size="24" font-family="Inter, Arial">- USCIS chunks</text>
  <text x="1012" y="444" fill="#b9d8f4" font-size="24" font-family="Inter, Arial">- School-aware refs</text>
  <text x="1012" y="478" fill="#b9d8f4" font-size="24" font-family="Inter, Arial">- Source citations</text>

  <line x1="300" y1="165" x2="360" y2="165" stroke="#56b6ff" stroke-width="4"/>
  <line x1="640" y1="165" x2="700" y2="165" stroke="#56b6ff" stroke-width="4"/>
  <line x1="1000" y1="165" x2="1060" y2="165" stroke="#56b6ff" stroke-width="4"/>

  <line x1="840" y1="210" x2="840" y2="320" stroke="#56b6ff" stroke-width="4"/>
  <line x1="500" y1="450" x2="560" y2="450" stroke="#56b6ff" stroke-width="4"/>
  <line x1="920" y1="450" x2="980" y2="450" stroke="#56b6ff" stroke-width="4"/>
</svg>
